<svg xmlns="http://www.w3.org/2000/svg" xmlns:xlink="http://www.w3.org/1999/xlink" viewBox="0 0 301.64 301.64"><defs><style>.cls-1{fill:none;}.cls-2{clip-path:url(#clip-path);}.cls-3{fill:#fff;}</style><clipPath id="clip-path" transform="translate(-19.26 -19.26)"><rect class="cls-1" width="340.16" height="340.16"/></clipPath></defs><title>Gril_logo</title><g id="Слой_2" data-name="Слой 2"><g id="Слой_1-2" data-name="Слой 1"><g class="cls-2"><path class="cls-3" d="M170.08,320.9c-83.16,0-150.82-67.66-150.82-150.82S86.92,19.26,170.08,19.26,320.9,86.92,320.9,170.08,253.24,320.9,170.08,320.9m0-297.64c-81,0-146.82,65.86-146.82,146.82S89.12,316.9,170.08,316.9,316.9,251,316.9,170.08,251,23.26,170.08,23.26m122.13,93.23-9.07-1.22a41.89,41.89,0,0,0,0-4.62,40.23,40.23,0,0,0-7-21.61c-2.94-4.19-7.37-10.52-14.31-10.52h-.11c-5.58,0-9.38,4.18-10.08,5-.13.16-.26.31-.4.5a54.8,54.8,0,0,0-4,4.79l-.44.6a29.18,29.18,0,0,0-4.36-4.8h0c-.7-12.86-3.91-26.42-15-34.75-13.12-9.87-29.63-7-32.81-6.32a43.21,43.21,0,0,0-24.18,14.71.64.64,0,0,1-.48.22.62.62,0,0,1-.48-.22,43.21,43.21,0,0,0-24.18-14.71c-3.18-.68-19.69-3.55-32.81,6.32-11,8.32-14.26,21.87-15,34.73a29.76,29.76,0,0,0-4.36,4.83l-.45-.6A53.13,53.13,0,0,0,88.89,84c-.13-.17-.26-.33-.4-.49-.7-.83-4.51-5-10.09-5h-.1C71.36,78.52,66.93,84.85,64,89a40.3,40.3,0,0,0-7,21.62,41.71,41.71,0,0,0,0,4.61L48,116.49a2,2,0,0,0,.26,4h.27l9-1.2a43.84,43.84,0,0,0,1.25,5.85,4.83,4.83,0,0,0,8.48,1.62l5.45-7.09a40.32,40.32,0,0,0,7.75,21.18C83.58,145.07,91.16,151,96.21,151h0c3.47,0,7.92-2.69,11.43-5.71.63,1.48,1.28,2.9,1.93,4.28a58.9,58.9,0,0,0-9.76,2.88,35.38,35.38,0,0,0-11.94,7.38c-7.85,7.82-5.57,20.28-4,28.52,3.32,18.13,13.86,29.55,17.33,33.3,4.93,5.35,13.18,10.77,19.24,14.38l1.33,6.84c-.44.62-.83,1.25-1.2,1.89a24.58,24.58,0,0,0-2.7,6.94c-.73,3.31-1.83,8.32,1.45,11.82a9.75,9.75,0,0,0,7,2.78h.24a9.43,9.43,0,0,0,4-1A16.18,16.18,0,0,0,146,277h.84v6.5a2,2,0,0,0,4,0v-32.2a19.26,19.26,0,0,1,38.52,0v32.2a2,2,0,0,0,4,0V277h.83a16.19,16.19,0,0,0,15.54-11.69,9.43,9.43,0,0,0,4,1h.23a9.77,9.77,0,0,0,6.95-2.78c3.27-3.5,2.17-8.51,1.45-11.82a24.58,24.58,0,0,0-2.7-6.94q-.56-1-1.2-1.89l1.33-6.84c6.05-3.61,14.3-9,19.24-14.38,3.46-3.75,14-15.17,17.33-33.3a71.8,71.8,0,0,0,1.52-12.88c0-5.64-1.25-11.34-5.57-15.64-6.58-6.56-17.08-9.32-21.7-10.26.65-1.38,1.29-2.8,1.93-4.28,3.51,3,8,5.7,11.43,5.71h0c5.05,0,12.63-5.93,15.84-10.18a40.24,40.24,0,0,0,7.76-21.18l5.44,7.09a4.84,4.84,0,0,0,8.49-1.62,44.52,44.52,0,0,0,1.25-5.85l8.94,1.2h.27a2,2,0,0,0,.27-4M101.53,86.69q.07-2.32.27-4.65c.92-11.15,4.09-22.11,13.22-29,6.92-5.22,15.13-6.4,21.16-6.4a42.36,42.36,0,0,1,8.4.79,39.37,39.37,0,0,1,22,13.37,4.62,4.62,0,0,0,7.08,0,39.33,39.33,0,0,1,22-13.37c1.76-.38,17.58-3.41,29.56,5.61,9.14,6.87,12.3,17.83,13.22,29h0c.14,1.54.22,3.09.27,4.63.19,5.46,0,10.83-.25,15.67q-.15,3.49-.51,6.84L229.18,108c-11.32-1.49-22.19,4.35-24.25,13l-15.82,66.87H186a16.17,16.17,0,0,0-31.88,0h-3.09l-15.83-66.87c-2.05-8.67-12.93-14.51-24.25-13l-8.68,1.17q-.36-3.35-.51-6.84c-.21-4.84-.44-10.21-.25-15.67m80.65,105.23a12.17,12.17,0,0,1-24.2,0,10.91,10.91,0,0,1-.07-1.29,12.17,12.17,0,0,1,24.34,0,10.91,10.91,0,0,1-.07,1.29M64,124.29a.83.83,0,0,1-1.47-.27A41,41,0,0,1,61,110.85a36.36,36.36,0,0,1,6.29-19.52c2.6-3.72,6.17-8.81,11-8.81h.06c3.92,0,6.77,3.24,7.08,3.61a5.21,5.21,0,0,1,.33.42l.15.17a48.42,48.42,0,0,1,3.71,4.5C90.29,92.1,90.9,93,91.5,94l1.88,3.1L94.94,94c.76-1.08,1.6-2.28,2.53-3.42,0,4.26.16,8.33.31,12q.15,3.68.54,7.2l-21.78,2.92.23-5ZM96.21,147h0c-3.25,0-9.78-4.8-12.64-8.59a36.34,36.34,0,0,1-7-19.28q-.1-1.2-.12-2.43l22.33-3A121.87,121.87,0,0,0,106,141.35c-3.18,3-7.42,5.64-9.83,5.65m12.85-9a117.71,117.71,0,0,1-6.29-24.85L111.5,112c9.35-1.23,18.24,3.25,19.83,10l15.61,65.95h-1a15.34,15.34,0,0,0-3,.28,125.67,125.67,0,0,1-17.64-19.61,144.71,144.71,0,0,1-9.76-15.88c-.63-1.22-1.27-2.49-1.91-3.82q-1.52-3.1-3-6.6c-.57-1.38-1.14-2.81-1.68-4.28m10.3,92.69c-5.14-3.22-11.41-7.59-15.26-11.76-3.27-3.54-13.22-14.33-16.34-31.31-1.44-7.87-3.42-18.63,2.94-25,6.17-6.14,16.89-8.63,20-9.24l.67-.13a143.51,143.51,0,0,0,10.68,17.58,126,126,0,0,0,16.63,18.79,16.18,16.18,0,0,0-8.9,14.43v28.14l-1,1.36-.34.44a2,2,0,0,1-2.61.53L124,233.49c-1.32-.77-2.91-1.71-4.62-2.79m7,31.6a5.85,5.85,0,0,1-4.13-1.51c-1.84-2-1-5.59-.46-8.23a20.49,20.49,0,0,1,2.26-5.81,22.27,22.27,0,0,1,1.46-2.22l.53-.71-1-5.29a6.28,6.28,0,0,0,1.86.29,5.94,5.94,0,0,0,2.85-.72l.14.72V261a5.9,5.9,0,0,1-3.48,1.34M194.17,273h-.83v-21.7a23.26,23.26,0,0,0-46.52,0V273H146a12.18,12.18,0,0,1-11.57-8.41,12,12,0,0,1-.6-3.76v-56.7A12.16,12.16,0,0,1,146,191.92h8a16.17,16.17,0,0,0,32.24,0h8a12.19,12.19,0,0,1,12.18,12.17v56.7a11.93,11.93,0,0,1-.6,3.75A12.18,12.18,0,0,1,194.17,273M218,260.79a5.79,5.79,0,0,1-7.61.17V238.82l.14-.72a6,6,0,0,0,4.71.42l-1,5.3.53.71a22.27,22.27,0,0,1,1.46,2.22,20.38,20.38,0,0,1,2.26,5.81c.58,2.64,1.38,6.26-.46,8.23M238.31,156a32.14,32.14,0,0,1,11.15,6.69c6.35,6.34,4.38,17.1,2.94,25-3.12,17-13.07,27.77-16.34,31.31-3.85,4.17-10.13,8.54-15.27,11.76-1.71,1.08-3.3,2-4.62,2.79-.69.41-1.32.77-1.85,1.07a2,2,0,0,1-2.61-.53l-.34-.44-1-1.36V204.09a16.18,16.18,0,0,0-8.9-14.43,126,126,0,0,0,16.63-18.79,144.25,144.25,0,0,0,10.67-17.57l.67.12a54.91,54.91,0,0,1,8.89,2.55m-7.21-18c-.54,1.47-1.11,2.9-1.68,4.28-1,2.33-2,4.54-3,6.61-.64,1.32-1.28,2.59-1.91,3.81a144.71,144.71,0,0,1-9.76,15.88,125.67,125.67,0,0,1-17.64,19.61,15.44,15.44,0,0,0-3-.28h-.95L208.83,122c1.59-6.73,10.48-11.21,19.82-10l8.74,1.18A117.61,117.61,0,0,1,231.1,138m32.48-18.88a36.34,36.34,0,0,1-7,19.28,29.15,29.15,0,0,1-6.18,5.72C248,145.8,245.58,147,244,147c-2.41,0-6.65-2.7-9.83-5.65a122.41,122.41,0,0,0,7.24-27.65l22.33,3c0,.82,0,1.64-.11,2.43M277.63,124a.8.8,0,0,1-.64.59.81.81,0,0,1-.82-.32l-12.78-16.64.22,5-21.78-2.92q.39-3.53.54-7.2c.16-3.65.33-7.72.32-12,1,1.19,1.83,2.42,2.61,3.54l1.76,2.51L248.65,94c.6-1,1.21-1.88,1.86-2.75a48.59,48.59,0,0,1,3.72-4.5l.19-.23c.09-.12.18-.24.29-.37.31-.36,3.16-3.57,7.08-3.6h.06c4.87,0,8.44,5.09,11,8.81a36.44,36.44,0,0,1,6.29,19.51A40.77,40.77,0,0,1,277.63,124M170.08,235.4a16.19,16.19,0,0,0-16.17,16.18v36.84a16.17,16.17,0,1,0,32.34,0V251.58a16.19,16.19,0,0,0-16.17-16.18m12.17,53a12.17,12.17,0,1,1-24.34,0V251.58a12.17,12.17,0,1,1,24.34,0ZM39.71,144.65a1.3,1.3,0,0,1-.21-1l.26-1.41a1.32,1.32,0,0,1,1.54-1.06l13.47,2.52a1.34,1.34,0,0,1,1.06,1.55l-1.6,8.56a1.36,1.36,0,0,1-.55.85,1.38,1.38,0,0,1-.75.23l-.24,0-1.24-.23a1.33,1.33,0,0,1-.84-.56,1.29,1.29,0,0,1-.21-1l1.1-5.87-11-2a1.31,1.31,0,0,1-.84-.55m-2.57,16.56.06-1.45a1.34,1.34,0,0,1,.42-.92,1.28,1.28,0,0,1,1-.35l13.7.59a1.3,1.3,0,0,1,.92.42,1.33,1.33,0,0,1,.34.95l-.21,5.13a7.52,7.52,0,0,1-1.78,4.89,5.45,5.45,0,0,1-4.21,1.77H47a5.56,5.56,0,0,1-4.37-2.15,7.61,7.61,0,0,1-1.34-5l.1-2.36-3-.13a1.31,1.31,0,0,1-1.26-1.37m12.38,1.84-4.2-.17-.1,2.31a3.54,3.54,0,0,0,.49,2.3,1.76,1.76,0,0,0,1.47.66,1.8,1.8,0,0,0,1.56-.53,3.56,3.56,0,0,0,.68-2.25Zm-9.81,28.3,13.63-1.46a1.32,1.32,0,0,0,1.17-1.45l-.14-1.31a1.3,1.3,0,0,0-.62-1l-8.93-5.49,7.44-.79a1.34,1.34,0,0,0,1.18-1.46L53.28,177a1.31,1.31,0,0,0-1.45-1.17L38.2,177.28A1.3,1.3,0,0,0,37,178.73l.14,1.31a1.3,1.3,0,0,0,.62,1l8.91,5.49-7.43.79a1.34,1.34,0,0,0-1.17,1.46l.15,1.42a1.33,1.33,0,0,0,1.32,1.18h.14m18.83,15.52a1.34,1.34,0,0,0,.13-1l-2.43-9a1.32,1.32,0,0,0-1.58-.94L49,197.29a26.72,26.72,0,0,1-3.58.61,3.81,3.81,0,0,1-1.65-.13.38.38,0,0,1-.26-.3,1.23,1.23,0,0,1-.05-.35,1.34,1.34,0,0,0-.49-1,1.31,1.31,0,0,0-1.06-.27l-1.28.22a1.31,1.31,0,0,0-1.09,1.34,5.77,5.77,0,0,0,.2,1.4,3.81,3.81,0,0,0,2,2.53,6.85,6.85,0,0,0,3.44.52,28.93,28.93,0,0,0,4.76-.78l3.22-.75,1,3.88-10.75,2.9a1.33,1.33,0,0,0-.93,1.62l.37,1.38a1.35,1.35,0,0,0,.62.8,1.28,1.28,0,0,0,.66.18,1.06,1.06,0,0,0,.35-.05l13.23-3.57a1.37,1.37,0,0,0,.8-.62M56.2,227.71a6.48,6.48,0,0,1-2.55.58,4.76,4.76,0,0,1-2.18-.52,7.18,7.18,0,0,1-3.25-3.8l-2.17-5a1.31,1.31,0,0,1,.68-1.74l12.57-5.48a1.33,1.33,0,0,1,1.74.69l.57,1.31a1.36,1.36,0,0,1,0,1,1.34,1.34,0,0,1-.71.73l-3.27,1.42,1.19,2.74a6.85,6.85,0,0,1,.53,4.75h0a5.27,5.27,0,0,1-3.17,3.29M54.55,224c.67-.29,1.68-.73.66-3.07l-1.06-2.43L50.63,220l1.06,2.43A3.15,3.15,0,0,0,53,224.07h0a1.66,1.66,0,0,0,1.56-.11m19.09,13.83a1.31,1.31,0,0,0,0-1.39l-.82-1.34a1.34,1.34,0,0,0-1-.62l-7-.68-.61-1,4.12-2.53a1.31,1.31,0,0,0,.43-1.81l-.74-1.2a1.29,1.29,0,0,0-.82-.6,1.33,1.33,0,0,0-1,.16L54.52,234a1.33,1.33,0,0,0-.43,1.82l.74,1.2a1.32,1.32,0,0,0,1.82.43l4.23-2.59.6,1-2.59,6.8a1.29,1.29,0,0,0,.11,1.16l.87,1.42a1.33,1.33,0,0,0,1.12.63h.13a1.33,1.33,0,0,0,1.11-.85l2.82-7.33,7.34.75a1.3,1.3,0,0,0,1.25-.61m12,14.3a1.33,1.33,0,0,0-.25-1.28l-.94-1.1a1.32,1.32,0,0,0-1.29-.43L75.36,251l3-7.31a1.32,1.32,0,0,0-.22-1.36l-1-1.18a1.33,1.33,0,0,0-1.23-.44,1.31,1.31,0,0,0-1,.81L70.75,252h0c-.93.16-1.21-.16-1.32-.29a2.21,2.21,0,0,1-.39-.74,1.33,1.33,0,0,0-.69-.76,1.39,1.39,0,0,0-1,0l-1.16.45a1.33,1.33,0,0,0-.77,1.65,5.71,5.71,0,0,0,1.06,2,4.81,4.81,0,0,0,2.37,1.51,5.66,5.66,0,0,0,1.46.19,7.35,7.35,0,0,0,1.57-.18L84.63,253a1.3,1.3,0,0,0,1-.87m10,10.19a6.06,6.06,0,0,1-5.75,6.66h-.17a7.58,7.58,0,0,1-4.74-2.13l-1.76-1.57-2,2.25a1.31,1.31,0,0,1-1.86.11l-1.09-1a1.32,1.32,0,0,1-.44-.91,1.36,1.36,0,0,1,.33-1l9.1-10.25a1.34,1.34,0,0,1,1.87-.11l3.83,3.41a7.52,7.52,0,0,1,2.68,4.46Zm-7-3.12-2.79,3.15,1.73,1.54a3.57,3.57,0,0,0,2.09,1.07h.07A1.76,1.76,0,0,0,91,264.2a1.81,1.81,0,0,0,.58-1.55,3.61,3.61,0,0,0-1.31-1.94Zm12.72,9.07c.23-.17.42-.31.59-.45a3.21,3.21,0,0,0,.57-.6,2.33,2.33,0,0,0,.45-1.74h0a2.29,2.29,0,0,0-1-1.57,2.27,2.27,0,0,0-1.75-.44,2.45,2.45,0,0,0-2,2.39.92.92,0,0,0,0,.16l-1.54,1.3a1.32,1.32,0,0,0,.07,2.08l.76.55a1.32,1.32,0,0,0,.78.25,1.29,1.29,0,0,0,.79-.26ZM115,276a7.06,7.06,0,0,0-1.4-3,9.45,9.45,0,0,0-2.61-2.26,8.13,8.13,0,0,0-4.11-1.21,7.6,7.6,0,0,0-4.06,1.06,8.91,8.91,0,0,0-4.34,7.23,7.73,7.73,0,0,0,1,4.08h0a8.19,8.19,0,0,0,3,3.06,9.67,9.67,0,0,0,3.23,1.24,7.21,7.21,0,0,0,1.3.11,6.79,6.79,0,0,0,2-.29,1.33,1.33,0,0,0,.9-1.57l-.3-1.26a1.3,1.3,0,0,0-.61-.82,1.32,1.32,0,0,0-1-.15,4.37,4.37,0,0,1-3.44-.61,4,4,0,0,1-1.43-1.41,4,4,0,0,1-.53-2.46l4.57,2.75a1.34,1.34,0,0,0,1,.15,1.37,1.37,0,0,0,.82-.61l.61-1a1.32,1.32,0,0,0-.45-1.81l-4.67-2.81a5.44,5.44,0,0,1,.62-.39,4,4,0,0,1,3.94.14,4.36,4.36,0,0,1,2.16,2.76,1.3,1.3,0,0,0,.61.82,1.32,1.32,0,0,0,1,.14l1.24-.32a1.33,1.33,0,0,0,1-1.54m14.37,5.4a6,6,0,0,1-3.44,8.22,7.5,7.5,0,0,1-5.17-.49l-2.18-.91L117.4,291a1.33,1.33,0,0,1-1.73.71l-1.34-.56a1.31,1.31,0,0,1-.7-1.73l5.29-12.64a1.29,1.29,0,0,1,.72-.71,1.31,1.31,0,0,1,1,0l4.73,2a7.49,7.49,0,0,1,4,3.36h0m-4.82,4.44h0a1.75,1.75,0,0,0,1.12-1.15,1.79,1.79,0,0,0,0-1.65,3.63,3.63,0,0,0-1.87-1.42l-2.14-.9-1.63,3.89,2.14.89a3.56,3.56,0,0,0,2.32.34m101.4-3.75a1.3,1.3,0,0,0-1.73-.69l-1.28.55a1.31,1.31,0,0,0-.69,1.73l1.54,3.57a5.12,5.12,0,0,1-1.89,1.33,4.71,4.71,0,0,1-2.39.4,4.17,4.17,0,0,1-2.08-.79,4.28,4.28,0,0,1-1.42-1.81,4.4,4.4,0,0,1-.35-2.29,3.94,3.94,0,0,1,.86-2.05,4.78,4.78,0,0,1,1.95-1.47,4.31,4.31,0,0,1,3.42-.14,1.29,1.29,0,0,0,1,0,1.32,1.32,0,0,0,.7-.73l.46-1.2a1.32,1.32,0,0,0-.7-1.68,7,7,0,0,0-3.21-.6,9.63,9.63,0,0,0-3.31.79,8.94,8.94,0,0,0-3.57,2.7,8,8,0,0,0-1.66,4,8.56,8.56,0,0,0,3.37,7.79,8,8,0,0,0,4,1.52c.25,0,.51,0,.77,0a9.25,9.25,0,0,0,3.63-.77,10,10,0,0,0,2.72-1.75A7.81,7.81,0,0,0,228,288a1.32,1.32,0,0,0,0-1.1Zm22.38-5a1.32,1.32,0,0,1-.6,1.24l-1.33.87a1.31,1.31,0,0,1-1.2.12l-4.34-1.71-.37.26-2,1.28,1.65,2.54a1.29,1.29,0,0,1,.19,1,1.31,1.31,0,0,1-.57.84l-1.22.79a1.33,1.33,0,0,1-1.83-.39l-7.48-11.48a1.34,1.34,0,0,1,.39-1.83l4.3-2.8a7.48,7.48,0,0,1,5-1.4,5.57,5.57,0,0,1,4.07,2.67,5.72,5.72,0,0,1,1,3.51,5.13,5.13,0,0,1-.45,1.87l3.91,1.54a1.32,1.32,0,0,1,.84,1.09m-10-2.45a3.55,3.55,0,0,0,1.57-1.73h0a1.76,1.76,0,0,0-.32-1.6,1.8,1.8,0,0,0-1.34-1,3.59,3.59,0,0,0-2.22.75l-1.94,1.26,2.3,3.55ZM249,257.94a1.32,1.32,0,0,0-1.86-.13l-1.1.95a1.37,1.37,0,0,0-.45.91,1.35,1.35,0,0,0,.32,1l9,10.34a1.33,1.33,0,0,0,1,.46,1.31,1.31,0,0,0,.87-.33l1.09-1a1.27,1.27,0,0,0,.45-.9,1.29,1.29,0,0,0-.32-1Zm23.09-6.14a1.32,1.32,0,0,0-1.86.11L266,256.65l-8.31-7.4a1.31,1.31,0,0,0-1.86.1l-1,1.08a1.36,1.36,0,0,0-.33,1,1.32,1.32,0,0,0,.44.91l10.23,9.12a1.3,1.3,0,0,0,.88.34,1.33,1.33,0,0,0,1-.45l6.07-6.81a1.32,1.32,0,0,0-.11-1.86Zm12.19-15.57-1-.68a1.32,1.32,0,0,0-1.83.38l-3.47,5.33-9.33-6.08a1.31,1.31,0,0,0-1.82.38l-.8,1.21a1.35,1.35,0,0,0-.18,1,1.32,1.32,0,0,0,.57.83l11.48,7.49a1.33,1.33,0,0,0,1.83-.39l5-7.64a1.32,1.32,0,0,0-.38-1.83m5.4-10.74-12.34-6a1.33,1.33,0,0,0-1.77.62l-.63,1.3a1.31,1.31,0,0,0-.05,1,1.35,1.35,0,0,0,.67.76l12.34,5.95a1.33,1.33,0,0,0,.58.13,1.25,1.25,0,0,0,.43-.07,1.33,1.33,0,0,0,.76-.67l.63-1.31a1.32,1.32,0,0,0-.62-1.76m-4.31-26.39a1.32,1.32,0,0,0-2.14.58l-.45,1.39a1.31,1.31,0,0,0,.37,1.39l7.48,6.71-10,1a1.31,1.31,0,0,0-1.13.91l-.48,1.48a1.32,1.32,0,0,0,.23,1.24,1.29,1.29,0,0,0,1,.49h.13l14.91-1.55a1.33,1.33,0,0,0,1.12-.91l.45-1.36a1.32,1.32,0,0,0-.38-1.39Zm16-15.91-1.24-.18a1.31,1.31,0,0,0-1.5,1.11l-1,6.84-2.42-.36.86-5.7a1.32,1.32,0,0,0-.25-1,1.3,1.3,0,0,0-.86-.52l-1.22-.19a1.33,1.33,0,0,0-1.51,1.12l-.85,5.7-2.21-.33,1-6.56a1.31,1.31,0,0,0-1.11-1.5l-1.24-.19a1.33,1.33,0,0,0-1.5,1.11l-1.39,9.3a1.32,1.32,0,0,0,1.11,1.5l13.55,2,.2,0a1.31,1.31,0,0,0,.78-.26,1.28,1.28,0,0,0,.52-.87l1.44-9.58a1.35,1.35,0,0,0-.24-1,1.36,1.36,0,0,0-.87-.52m1.86-10.5a1.32,1.32,0,0,1-1.3,1.34l-13.71.23h0a1.32,1.32,0,0,1-1.32-1.3l-.09-5.13a7.55,7.55,0,0,1,1.48-5,5.56,5.56,0,0,1,4.43-2,5.76,5.76,0,0,1,3.51,1,5.22,5.22,0,0,1,1.35,1.38l3.38-2.5a1.33,1.33,0,0,1,1.37-.12,1.31,1.31,0,0,1,.73,1.16l0,1.59a1.31,1.31,0,0,1-.54,1.09l-3.75,2.76c0,.15,0,.3,0,.45l0,2.36,3-.05a1.29,1.29,0,0,1,.94.37,1.3,1.3,0,0,1,.4.93Zm-10.46-7.79a1.81,1.81,0,0,0-1.53.62,3.57,3.57,0,0,0-.55,2.28l0,2.32,4.23-.07,0-2.32a3.53,3.53,0,0,0-.63-2.25,1.75,1.75,0,0,0-1.46-.58h-.06m-8.68-20.44a1.31,1.31,0,0,0,.83,1l6.39,2.47-5.12,4.56a1.34,1.34,0,0,0-.42,1.22l.27,1.53a1.33,1.33,0,0,0,.88,1,1.25,1.25,0,0,0,.43.07,1.39,1.39,0,0,0,.88-.33l7.56-6.75,4.3-.78a1.32,1.32,0,0,0,1.06-1.54l-.25-1.4a1.3,1.3,0,0,0-.55-.85,1.33,1.33,0,0,0-1-.22l-4.29.78-9.46-3.66a1.32,1.32,0,0,0-1.78,1.47Z" transform="translate(-19.26 -19.26)"/></g></g></g></svg>